G04 #@! TF.FileFunction,Copper,L2,Bot,Signal*
%FSLAX46Y46*%
G04 Gerber Fmt 4.6, Leading zero omitted, Abs format (unit mm)*
G04 Created by KiCad (PCBNEW 4.0.7-e2-6376~61~ubuntu18.04.1) date Fri Aug 17 14:34:15 2018*
%MOMM*%
%LPD*%
G01*
G04 APERTURE LIST*
%ADD10C,0.100000*%
%ADD11R,1.778000X1.778000*%
%ADD12C,1.778000*%
%ADD13R,1.300000X0.700000*%
%ADD14R,1.200000X1.200000*%
%ADD15C,0.250000*%
G04 APERTURE END LIST*
D10*
D11*
X139611100Y-96113600D03*
D12*
X142151100Y-96113600D03*
X154851100Y-96113600D03*
X157391100Y-96113600D03*
X139611100Y-113893600D03*
X142151100Y-113893600D03*
X154851100Y-113893600D03*
X157391100Y-113893600D03*
D13*
X148450000Y-106725000D03*
X148450000Y-104825000D03*
D14*
X156150000Y-105900000D03*
X156150000Y-108100000D03*
D10*
G36*
X143908429Y-100701588D02*
X144891411Y-100013296D01*
X145579703Y-100996278D01*
X144596721Y-101684570D01*
X143908429Y-100701588D01*
X143908429Y-100701588D01*
G37*
G36*
X145170297Y-102503722D02*
X146153279Y-101815430D01*
X146841571Y-102798412D01*
X145858589Y-103486704D01*
X145170297Y-102503722D01*
X145170297Y-102503722D01*
G37*
D14*
X140900000Y-105900000D03*
X140900000Y-108100000D03*
D10*
G36*
X151933589Y-99913296D02*
X152916571Y-100601588D01*
X152228279Y-101584570D01*
X151245297Y-100896278D01*
X151933589Y-99913296D01*
X151933589Y-99913296D01*
G37*
G36*
X150671721Y-101715430D02*
X151654703Y-102403722D01*
X150966411Y-103386704D01*
X149983429Y-102698412D01*
X150671721Y-101715430D01*
X150671721Y-101715430D01*
G37*
D15*
X154851100Y-97798900D02*
X154851100Y-96113600D01*
X156025000Y-98737500D02*
X154851100Y-96113600D01*
X142151100Y-113893600D02*
X139945000Y-111507500D01*
X139945000Y-111507500D02*
X139945000Y-107234552D01*
X139945000Y-107234552D02*
X140825000Y-106294552D01*
X140825000Y-106294552D02*
X140825000Y-98925000D01*
X140825000Y-98925000D02*
X141325000Y-98425000D01*
X141325000Y-98425000D02*
X142625000Y-98425000D01*
X142625000Y-98425000D02*
X144847183Y-100647183D01*
X144819066Y-100973933D02*
X145498933Y-100573933D01*
X145498933Y-100573933D02*
X146850000Y-101875000D01*
X146850000Y-101875000D02*
X147500000Y-103188602D01*
X147500000Y-103188602D02*
X148430699Y-104119301D01*
X148494301Y-104119301D02*
X149650000Y-102963602D01*
X148430699Y-104119301D02*
X148494301Y-104119301D01*
X152002817Y-100647183D02*
X154851100Y-97798900D01*
X150751067Y-100948933D02*
X151880934Y-100548933D01*
X149650000Y-102450000D02*
X150751067Y-100948933D01*
X149650000Y-102963602D02*
X149650000Y-102450000D01*
X156025000Y-106025000D02*
X156025000Y-98737500D01*
X156150000Y-108100000D02*
X155650000Y-108100000D01*
X155650000Y-108100000D02*
X155200000Y-107650000D01*
X155200000Y-107650000D02*
X155200000Y-107325000D01*
X155200000Y-107325000D02*
X155075000Y-105500000D01*
X155075000Y-105500000D02*
X155075000Y-98925000D01*
X155075000Y-98925000D02*
X154762500Y-99037500D01*
X154762500Y-99037500D02*
X153725000Y-100075000D01*
X153725000Y-100075000D02*
X152412500Y-101912500D01*
X152412500Y-101912500D02*
X151061433Y-103263567D01*
X151061433Y-103263567D02*
X150819066Y-102551067D01*
X150806801Y-102562435D02*
X150447183Y-102202817D01*
X150447183Y-102802817D02*
X150447183Y-102202817D01*
X148450000Y-104800000D02*
X150447183Y-102802817D01*
X145557001Y-103100000D02*
X146005934Y-102651067D01*
X145275000Y-103050000D02*
X145557001Y-103100000D01*
X144100000Y-101875000D02*
X145275000Y-103050000D01*
X146402817Y-102202817D02*
X146402817Y-102777817D01*
X146402817Y-102777817D02*
X148450000Y-104825000D01*
X143750000Y-101550000D02*
X144100000Y-101875000D01*
X142125000Y-107150000D02*
X141650000Y-100150000D01*
X141650000Y-100150000D02*
X142300000Y-99900000D01*
X142300000Y-99900000D02*
X143275000Y-100850000D01*
X143275000Y-100850000D02*
X143750000Y-101550000D01*
X140825000Y-108450000D02*
X142125000Y-107150000D01*
X148450000Y-104825000D02*
X148450000Y-104800000D01*
X155124266Y-109355000D02*
X154600000Y-107150000D01*
X154600000Y-107150000D02*
X154600000Y-103975000D01*
X152600420Y-102674583D02*
X150775000Y-104500000D01*
X153800002Y-100752235D02*
X152600420Y-102674583D01*
X154600000Y-99950000D02*
X153787768Y-100762235D01*
X148075000Y-106825000D02*
X148625000Y-106825000D01*
X139880786Y-106604214D02*
X139850000Y-98600000D01*
X139474342Y-107010658D02*
X139880786Y-106604214D01*
X139454327Y-112054327D02*
X139474342Y-107010658D01*
X154600000Y-103975000D02*
X154600000Y-99950000D01*
X156825000Y-103425000D02*
X157300000Y-103900000D01*
X157300000Y-103900000D02*
X157300000Y-107875000D01*
X157300000Y-107875000D02*
X157131228Y-109355000D01*
X157131228Y-109355000D02*
X155124266Y-109355000D01*
X156825000Y-96679700D02*
X156825000Y-103425000D01*
X150775000Y-104500000D02*
X148450000Y-106725000D01*
X157391100Y-96113600D02*
X156825000Y-96679700D01*
X139611100Y-113893600D02*
X139611100Y-112211100D01*
X156077500Y-94800000D02*
X157391100Y-96113600D01*
X153762493Y-94800000D02*
X156077500Y-94800000D01*
X152881603Y-96745996D02*
X153762493Y-94800000D01*
X152828221Y-98279526D02*
X152881603Y-96745996D01*
X149199998Y-102285709D02*
X151000000Y-99550958D01*
X151000000Y-99550958D02*
X152828221Y-98279526D01*
X149199998Y-102625000D02*
X149199998Y-102285709D01*
X148800000Y-103024998D02*
X149199998Y-102625000D01*
X148800000Y-103082642D02*
X148800000Y-103024998D01*
X148423898Y-103426102D02*
X148800000Y-103082642D01*
X148451102Y-103401102D02*
X148423898Y-103426102D01*
X147925000Y-102675000D02*
X148451102Y-103401102D01*
X147325000Y-101675000D02*
X147925000Y-102675000D01*
X144875000Y-98898334D02*
X147325000Y-101675000D01*
X144875000Y-98875000D02*
X144875000Y-98898334D01*
X144475000Y-98525000D02*
X144875000Y-98875000D01*
X143375000Y-97725000D02*
X144475000Y-98525000D01*
X140725000Y-97725000D02*
X143375000Y-97725000D01*
X139850000Y-98600000D02*
X140725000Y-97725000D01*
X139611100Y-112211100D02*
X139454327Y-112054327D01*
M02*
