G04 #@! TF.FileFunction,Copper,L2,Bot,Signal*
%FSLAX46Y46*%
G04 Gerber Fmt 4.6, Leading zero omitted, Abs format (unit mm)*
G04 Created by KiCad (PCBNEW 4.0.7-e2-6376~61~ubuntu18.04.1) date Fri Aug 17 14:47:14 2018*
%MOMM*%
%LPD*%
G01*
G04 APERTURE LIST*
%ADD10C,0.100000*%
%ADD11R,1.500000X1.500000*%
%ADD12R,1.778000X1.778000*%
%ADD13C,1.778000*%
%ADD14R,0.700000X1.300000*%
%ADD15C,0.300000*%
G04 APERTURE END LIST*
D10*
D11*
X151820400Y-110666800D03*
X151820400Y-107366800D03*
X144962400Y-110616000D03*
X144962400Y-107316000D03*
X153167600Y-102768400D03*
X156467600Y-102768400D03*
X146817600Y-104698800D03*
X150117600Y-104698800D03*
X146817600Y-99009200D03*
X150117600Y-99009200D03*
X140569200Y-102768400D03*
X143869200Y-102768400D03*
D12*
X139611100Y-96113600D03*
D13*
X157391100Y-96113600D03*
X139611100Y-113893600D03*
X157391100Y-113893600D03*
D14*
X151775000Y-97000000D03*
X153675000Y-97000000D03*
D15*
X144962400Y-107316000D02*
X144962400Y-107289600D01*
X144962400Y-107289600D02*
X144149600Y-106476800D01*
X144149600Y-106476800D02*
X144149600Y-106503200D01*
X152836400Y-98450400D02*
X151775000Y-97389000D01*
X155935200Y-98450400D02*
X152836400Y-98450400D01*
X156467600Y-98982800D02*
X155935200Y-98450400D01*
X151775000Y-97389000D02*
X151775000Y-97000000D01*
X156467600Y-105030000D02*
X156467600Y-98982800D01*
X151775000Y-97000000D02*
X150117600Y-98657400D01*
X154130800Y-107366800D02*
X156467600Y-105030000D01*
X150117600Y-99009200D02*
X150117600Y-104089200D01*
X150117600Y-98657400D02*
X150117600Y-99009200D01*
X156467600Y-102768400D02*
X156467600Y-105030000D01*
X143869200Y-106222800D02*
X144149600Y-106503200D01*
X144149600Y-106503200D02*
X145013200Y-107366800D01*
X151058400Y-107366800D02*
X145013200Y-107366800D01*
X151058400Y-107366800D02*
X154130800Y-107366800D01*
X143869200Y-102768400D02*
X143869200Y-106222800D01*
X151820400Y-110666800D02*
X150727200Y-110666800D01*
X150702800Y-110642400D02*
X150702800Y-110666800D01*
X150727200Y-110666800D02*
X150702800Y-110642400D01*
X144962400Y-110616000D02*
X144328400Y-110616000D01*
X144328400Y-110616000D02*
X144277600Y-110666800D01*
X144277600Y-110666800D02*
X144962400Y-110616000D01*
X140569200Y-107722400D02*
X140569200Y-102768400D01*
X140569200Y-102768400D02*
X139611100Y-101810300D01*
X143513600Y-110666800D02*
X140569200Y-107722400D01*
X151058400Y-110666800D02*
X150702800Y-110666800D01*
X150702800Y-110666800D02*
X145927600Y-110666800D01*
X145927600Y-110666800D02*
X143513600Y-110666800D01*
X146817600Y-104089200D02*
X146817600Y-105284000D01*
X147705600Y-106172000D02*
X146817600Y-105284000D01*
X151363200Y-106172000D02*
X147705600Y-106172000D01*
X153167600Y-102768400D02*
X153167600Y-104367600D01*
X153167600Y-104367600D02*
X151363200Y-106172000D01*
X146817600Y-105284000D02*
X146817600Y-99009200D01*
X146817600Y-99009200D02*
X143922000Y-96113600D01*
X139611100Y-101810300D02*
X139611100Y-96113600D01*
X143922000Y-96113600D02*
X139611100Y-96113600D01*
X153675000Y-97000000D02*
X154561400Y-96113600D01*
X154561400Y-96113600D02*
X157391100Y-96113600D01*
M02*
