G04 #@! TF.FileFunction,Copper,L1,Top,Signal*
%FSLAX46Y46*%
G04 Gerber Fmt 4.6, Leading zero omitted, Abs format (unit mm)*
G04 Created by KiCad (PCBNEW 4.0.7-e2-6376~61~ubuntu18.04.1) date Fri Aug 17 14:47:14 2018*
%MOMM*%
%LPD*%
G01*
G04 APERTURE LIST*
%ADD10C,0.100000*%
%ADD11R,1.778000X1.778000*%
%ADD12C,1.778000*%
G04 APERTURE END LIST*
D10*
G36*
X138882138Y-104993705D02*
X138882138Y-112491956D01*
X138938398Y-112597270D01*
X139057322Y-112609261D01*
X139213384Y-112545699D01*
X139483135Y-112494540D01*
X139757537Y-112496603D01*
X140025738Y-112552414D01*
X140277402Y-112657317D01*
X140505295Y-112811313D01*
X140698565Y-113004583D01*
X140849977Y-113232476D01*
X140954880Y-113486207D01*
X141008107Y-113755441D01*
X141003456Y-114069117D01*
X140942994Y-114336285D01*
X140907337Y-114416383D01*
X140917021Y-114537013D01*
X141023609Y-114594667D01*
X155976702Y-114594667D01*
X156080251Y-114541393D01*
X156096591Y-114426201D01*
X156026828Y-114226734D01*
X155987038Y-113954399D01*
X156003574Y-113679480D01*
X156071270Y-113411796D01*
X156171522Y-113202507D01*
X156300197Y-113160132D01*
X157071726Y-113934245D01*
X157105832Y-113996257D01*
X157286183Y-114176607D01*
X157390570Y-114213298D01*
X157493922Y-114176607D01*
X157674273Y-113996257D01*
X157710447Y-113891870D01*
X157674273Y-113789034D01*
X157493922Y-113608684D01*
X157431911Y-113574577D01*
X156657798Y-112802531D01*
X156700689Y-112671273D01*
X156794740Y-112621147D01*
X157055706Y-112529163D01*
X157328041Y-112489889D01*
X157602960Y-112505909D01*
X157870127Y-112573605D01*
X157903200Y-112590142D01*
X158026844Y-112584525D01*
X158087168Y-112476454D01*
X158087168Y-104993706D01*
X155951381Y-104993706D01*
X155957064Y-105142534D01*
X155953068Y-105389023D01*
X155941164Y-105633524D01*
X155921473Y-105875912D01*
X155894121Y-106116066D01*
X155859229Y-106353860D01*
X155816921Y-106589172D01*
X155767322Y-106821879D01*
X155710553Y-107051858D01*
X155646739Y-107278984D01*
X155576002Y-107503135D01*
X155498466Y-107724187D01*
X155414255Y-107942017D01*
X155323492Y-108156502D01*
X155226299Y-108367518D01*
X155122801Y-108574942D01*
X155013121Y-108778650D01*
X154897382Y-108978520D01*
X154775707Y-109174427D01*
X154648220Y-109366249D01*
X154515044Y-109553863D01*
X154376302Y-109737144D01*
X154232119Y-109915969D01*
X154082616Y-110090216D01*
X153927918Y-110259761D01*
X153768148Y-110424480D01*
X153603429Y-110584250D01*
X153433884Y-110738948D01*
X153259637Y-110888451D01*
X153080811Y-111032635D01*
X152897530Y-111171376D01*
X152709917Y-111304552D01*
X152518095Y-111432039D01*
X152322188Y-111553714D01*
X152122318Y-111669453D01*
X151918609Y-111779133D01*
X151711186Y-111882631D01*
X151500170Y-111979824D01*
X151285685Y-112070587D01*
X151067855Y-112154799D01*
X150846803Y-112232334D01*
X150622652Y-112303071D01*
X150395526Y-112366885D01*
X150165547Y-112423654D01*
X149932840Y-112473254D01*
X149697528Y-112515561D01*
X149459733Y-112550453D01*
X149219580Y-112577806D01*
X148977192Y-112597496D01*
X148732691Y-112609401D01*
X148486202Y-112613396D01*
X148239713Y-112609401D01*
X147995210Y-112597496D01*
X147752819Y-112577806D01*
X147512662Y-112550453D01*
X147274862Y-112515561D01*
X147039544Y-112473254D01*
X146806830Y-112423654D01*
X146576844Y-112366885D01*
X146349709Y-112303071D01*
X146125548Y-112232334D01*
X145904486Y-112154799D01*
X145686645Y-112070587D01*
X145472149Y-111979824D01*
X145261121Y-111882631D01*
X145053684Y-111779133D01*
X144849962Y-111669453D01*
X144650079Y-111553714D01*
X144454157Y-111432039D01*
X144262321Y-111304552D01*
X144074693Y-111171376D01*
X143891397Y-111032635D01*
X143712556Y-110888451D01*
X143538294Y-110738948D01*
X143368733Y-110584250D01*
X143203999Y-110424480D01*
X143044213Y-110259761D01*
X142889499Y-110090216D01*
X142739981Y-109915969D01*
X142595783Y-109737144D01*
X142457026Y-109553863D01*
X142323835Y-109366249D01*
X142196334Y-109174427D01*
X142074645Y-108978520D01*
X141958892Y-108778650D01*
X141849198Y-108574942D01*
X141745687Y-108367518D01*
X141648483Y-108156502D01*
X141557707Y-107942017D01*
X141473485Y-107724187D01*
X141395939Y-107503135D01*
X141325193Y-107278984D01*
X141261370Y-107051858D01*
X141204593Y-106821879D01*
X141154986Y-106589172D01*
X141112673Y-106353860D01*
X141077776Y-106116066D01*
X141050419Y-105875912D01*
X141030726Y-105633524D01*
X141018820Y-105389023D01*
X141014823Y-105142534D01*
X141016887Y-104993706D01*
X138882138Y-104993705D01*
X138882138Y-104993705D01*
G37*
G36*
X153971671Y-103106999D02*
X153982029Y-102855148D01*
X153979659Y-102604207D01*
X153964863Y-102354368D01*
X153937942Y-102105825D01*
X153899197Y-101858770D01*
X153848930Y-101613397D01*
X153787440Y-101369898D01*
X153715031Y-101128467D01*
X153632002Y-100889297D01*
X153538656Y-100652580D01*
X153435292Y-100418509D01*
X153322213Y-100187278D01*
X153199719Y-99959080D01*
X153068112Y-99734107D01*
X152927693Y-99512552D01*
X152778763Y-99294608D01*
X152621623Y-99080469D01*
X152456575Y-98870328D01*
X152283919Y-98664376D01*
X152287536Y-98664376D01*
X152496568Y-98793446D01*
X152700991Y-98929157D01*
X152900657Y-99071362D01*
X153095417Y-99219916D01*
X153285122Y-99374670D01*
X153469624Y-99535478D01*
X153648774Y-99702195D01*
X153822424Y-99874673D01*
X153990425Y-100052765D01*
X154152628Y-100236326D01*
X154308886Y-100425207D01*
X154459049Y-100619264D01*
X154602968Y-100818349D01*
X154740496Y-101022315D01*
X154871484Y-101231016D01*
X154995782Y-101444306D01*
X155113243Y-101662037D01*
X155223719Y-101884063D01*
X155327059Y-102110238D01*
X155423116Y-102340415D01*
X155511742Y-102574446D01*
X155592787Y-102812187D01*
X155666104Y-103053489D01*
X155731543Y-103298206D01*
X155788956Y-103546192D01*
X155838194Y-103797301D01*
X155879109Y-104051385D01*
X155911552Y-104308297D01*
X155935375Y-104567892D01*
X155946356Y-104780018D01*
X155951396Y-104993706D01*
X158087168Y-104993706D01*
X158087168Y-97510441D01*
X158026849Y-97402628D01*
X157903200Y-97397270D01*
X157870127Y-97413806D01*
X157602960Y-97480986D01*
X157328041Y-97497522D01*
X157055706Y-97457731D01*
X156794740Y-97366264D01*
X156700689Y-97316138D01*
X156657798Y-97184363D01*
X157431911Y-96412834D01*
X157493922Y-96378727D01*
X157674273Y-96198377D01*
X157710447Y-96095024D01*
X157674273Y-95990637D01*
X157493922Y-95810287D01*
X157390570Y-95774113D01*
X157286183Y-95810287D01*
X157105832Y-95990637D01*
X157071726Y-96053166D01*
X156300197Y-96827279D01*
X156171522Y-96784904D01*
X156071270Y-96575615D01*
X156003574Y-96307414D01*
X155987038Y-96032495D01*
X156026828Y-95760677D01*
X156096591Y-95561206D01*
X156080251Y-95445756D01*
X155976702Y-95392224D01*
X141023527Y-95392138D01*
X141023527Y-97495575D01*
X138882138Y-97495575D01*
X138882138Y-104993705D01*
X141016892Y-104993705D01*
X141017421Y-104947713D01*
X141025173Y-104757544D01*
X141025173Y-104753927D01*
X141036542Y-104567892D01*
X141060366Y-104308297D01*
X141092810Y-104051385D01*
X141133725Y-103797301D01*
X141182964Y-103546193D01*
X141240377Y-103298206D01*
X141305816Y-103053489D01*
X141379132Y-102812187D01*
X141460178Y-102574447D01*
X141548803Y-102340415D01*
X141644861Y-102110239D01*
X141748201Y-101884064D01*
X141858676Y-101662038D01*
X141976137Y-101444307D01*
X142100436Y-101231017D01*
X142231423Y-101022316D01*
X142368951Y-100818350D01*
X142512870Y-100619265D01*
X142663033Y-100425209D01*
X142819290Y-100236327D01*
X142981494Y-100052766D01*
X143149494Y-99874674D01*
X143323144Y-99702196D01*
X143502294Y-99535479D01*
X143686796Y-99374671D01*
X143876501Y-99219916D01*
X144071261Y-99071363D01*
X144270926Y-98929158D01*
X144475350Y-98793446D01*
X144684382Y-98664376D01*
X144688517Y-98664376D01*
X144515862Y-98870328D01*
X144350813Y-99080470D01*
X144193674Y-99294609D01*
X144044743Y-99512553D01*
X143904324Y-99734108D01*
X143772717Y-99959081D01*
X143650223Y-100187279D01*
X143537144Y-100418510D01*
X143433780Y-100652581D01*
X143340433Y-100889298D01*
X143257404Y-101128468D01*
X143184995Y-101369899D01*
X143123505Y-101613397D01*
X143073238Y-101858770D01*
X143034493Y-102105825D01*
X143007572Y-102354368D01*
X142992776Y-102604207D01*
X142990407Y-102855148D01*
X143000765Y-103106999D01*
X143027001Y-103362295D01*
X143070853Y-103614157D01*
X143131381Y-103861522D01*
X143207650Y-104103328D01*
X143298720Y-104338512D01*
X143403654Y-104566011D01*
X143521514Y-104784763D01*
X143651364Y-104993705D01*
X143802969Y-105205731D01*
X143966222Y-105403856D01*
X144140001Y-105586736D01*
X144323189Y-105753024D01*
X144514665Y-105901374D01*
X144713309Y-106030441D01*
X144918003Y-106138879D01*
X145127626Y-106225341D01*
X145341060Y-106288483D01*
X145557183Y-106326957D01*
X145557183Y-106333675D01*
X145843580Y-106328910D01*
X146101174Y-106290654D01*
X146331450Y-106222268D01*
X146535894Y-106127111D01*
X146715991Y-106008545D01*
X146873226Y-105869928D01*
X147009084Y-105714622D01*
X147125050Y-105545987D01*
X147222610Y-105367382D01*
X147303248Y-105182168D01*
X147368449Y-104993705D01*
X147441219Y-104709802D01*
X147487253Y-104437786D01*
X147511352Y-104189353D01*
X147518319Y-103976197D01*
X147510642Y-103714096D01*
X147487834Y-103454201D01*
X147450230Y-103197695D01*
X147398163Y-102945760D01*
X147331967Y-102699580D01*
X147251976Y-102460338D01*
X147158526Y-102229217D01*
X147051949Y-102007401D01*
X146932580Y-101796072D01*
X146800752Y-101596414D01*
X146656801Y-101409610D01*
X146501060Y-101236844D01*
X146333863Y-101079297D01*
X146155544Y-100938155D01*
X145966437Y-100814599D01*
X145766877Y-100709813D01*
X145557198Y-100624980D01*
X146451717Y-99632276D01*
X146619635Y-99742272D01*
X146787643Y-99850897D01*
X146955183Y-99965288D01*
X147121698Y-100092582D01*
X147286632Y-100239917D01*
X147449425Y-100414431D01*
X147609522Y-100623260D01*
X147766366Y-100873544D01*
X147759458Y-100718342D01*
X147738060Y-100536800D01*
X147701162Y-100333518D01*
X147647754Y-100113099D01*
X147576823Y-99880144D01*
X147487361Y-99639255D01*
X147378355Y-99395035D01*
X147248796Y-99152085D01*
X147097673Y-98915007D01*
X148486218Y-97373499D01*
X149874764Y-98915007D01*
X149723641Y-99152085D01*
X149594082Y-99395035D01*
X149485077Y-99639256D01*
X149395614Y-99880144D01*
X149324684Y-100113099D01*
X149271275Y-100333519D01*
X149234377Y-100536801D01*
X149212979Y-100718343D01*
X149206071Y-100873544D01*
X149362915Y-100623261D01*
X149523012Y-100414431D01*
X149685805Y-100239918D01*
X149850738Y-100092583D01*
X150017253Y-99965288D01*
X150184793Y-99850898D01*
X150352801Y-99742273D01*
X150520719Y-99632276D01*
X151414722Y-100624980D01*
X151205048Y-100709813D01*
X151005503Y-100814599D01*
X150816419Y-100938155D01*
X150638130Y-101079298D01*
X150470969Y-101236844D01*
X150315267Y-101409611D01*
X150171359Y-101596414D01*
X150039577Y-101796072D01*
X149920253Y-102007401D01*
X149813721Y-102229217D01*
X149720313Y-102460337D01*
X149640362Y-102699579D01*
X149574202Y-102945759D01*
X149522164Y-103197694D01*
X149484583Y-103454201D01*
X149461789Y-103714096D01*
X149454118Y-103976197D01*
X149458863Y-104144774D01*
X149476258Y-104344898D01*
X149511042Y-104578065D01*
X149567956Y-104845767D01*
X149651739Y-105149498D01*
X149711287Y-105314460D01*
X149792264Y-105483499D01*
X149896363Y-105651207D01*
X150025278Y-105812177D01*
X150180701Y-105961001D01*
X150364326Y-106092272D01*
X150577845Y-106200582D01*
X150822953Y-106280524D01*
X151101343Y-106326691D01*
X151414707Y-106333675D01*
X151414707Y-106326958D01*
X151630823Y-106288483D01*
X151844245Y-106225340D01*
X152053855Y-106138876D01*
X152258535Y-106030436D01*
X152457169Y-105901367D01*
X152648639Y-105753016D01*
X152831828Y-105586728D01*
X153005620Y-105403849D01*
X153168896Y-105205726D01*
X153320541Y-104993706D01*
X153450452Y-104784762D01*
X153568391Y-104566010D01*
X153673412Y-104338513D01*
X153764570Y-104103331D01*
X153840921Y-103861527D01*
X153901518Y-103614163D01*
X153945416Y-103362299D01*
X153971671Y-103106999D01*
X153971671Y-103106999D01*
G37*
D11*
X139611100Y-96113600D03*
D12*
X157391100Y-96113600D03*
X139611100Y-113893600D03*
X157391100Y-113893600D03*
M02*
