G04 #@! TF.FileFunction,Legend,Top*
%FSLAX46Y46*%
G04 Gerber Fmt 4.6, Leading zero omitted, Abs format (unit mm)*
G04 Created by KiCad (PCBNEW 4.0.7-e2-6376~61~ubuntu18.04.1) date Fri Aug 17 14:13:56 2018*
%MOMM*%
%LPD*%
G01*
G04 APERTURE LIST*
%ADD10C,0.100000*%
%ADD11C,0.027261*%
%ADD12C,0.150000*%
%ADD13R,0.800000X0.800000*%
%ADD14R,1.778000X1.778000*%
%ADD15C,1.778000*%
G04 APERTURE END LIST*
D10*
D11*
G36*
X158700105Y-84740000D02*
X158700105Y-86009690D01*
X158810176Y-86009690D01*
X159040136Y-86030877D01*
X159302483Y-86057478D01*
X159561883Y-86096782D01*
X159818442Y-86148294D01*
X160072261Y-86211518D01*
X160323445Y-86285959D01*
X160572098Y-86371122D01*
X160818322Y-86466510D01*
X161056941Y-86569096D01*
X161291127Y-86679434D01*
X161520998Y-86797282D01*
X161746674Y-86922397D01*
X161968271Y-87054538D01*
X162185908Y-87193463D01*
X162399703Y-87338930D01*
X162609775Y-87490698D01*
X162816242Y-87648523D01*
X163019221Y-87812164D01*
X163209752Y-87973787D01*
X163397264Y-88139312D01*
X163582994Y-88307121D01*
X163768177Y-88475597D01*
X163954048Y-88643121D01*
X164002107Y-88681879D01*
X163833316Y-88862641D01*
X163665589Y-89042263D01*
X163498387Y-89221318D01*
X163331170Y-89400377D01*
X163163399Y-89580015D01*
X163085367Y-89508701D01*
X162919073Y-89349553D01*
X162750187Y-89193653D01*
X162578561Y-89041175D01*
X162404046Y-88892295D01*
X162226492Y-88747184D01*
X162045749Y-88606019D01*
X161861669Y-88468971D01*
X161652952Y-88321758D01*
X161440804Y-88181259D01*
X161224948Y-88048020D01*
X161005109Y-87922587D01*
X160781009Y-87805509D01*
X160552373Y-87697330D01*
X160318923Y-87598597D01*
X160080383Y-87509857D01*
X159854526Y-87437832D01*
X159626982Y-87377715D01*
X159397760Y-87329599D01*
X159166868Y-87293577D01*
X158934313Y-87269744D01*
X158700105Y-87258193D01*
X158700105Y-88234360D01*
X158959904Y-88246805D01*
X159218269Y-88275588D01*
X159475151Y-88320783D01*
X159730499Y-88382464D01*
X159984264Y-88460703D01*
X160223415Y-88549241D01*
X160456701Y-88648879D01*
X160684321Y-88759164D01*
X160906473Y-88879644D01*
X161123355Y-89009864D01*
X161335165Y-89149373D01*
X161542102Y-89297716D01*
X161744364Y-89454441D01*
X161937943Y-89615904D01*
X162127539Y-89782572D01*
X162315458Y-89951443D01*
X162504008Y-90119517D01*
X162546382Y-90149489D01*
X162376160Y-90331706D01*
X162207901Y-90511768D01*
X162041502Y-90689811D01*
X161876860Y-90865973D01*
X161713875Y-91040391D01*
X161526221Y-90878616D01*
X161340832Y-90718002D01*
X161155413Y-90560194D01*
X160967667Y-90406838D01*
X160766774Y-90254427D01*
X160560015Y-90112227D01*
X160347073Y-89981017D01*
X160127634Y-89861580D01*
X159901383Y-89754696D01*
X159668005Y-89661147D01*
X159430335Y-89584457D01*
X159189785Y-89527355D01*
X158946369Y-89490381D01*
X158700105Y-89474078D01*
X158700105Y-90441978D01*
X158935540Y-90455832D01*
X159169177Y-90492340D01*
X159401006Y-90551170D01*
X159631020Y-90631990D01*
X159859207Y-90734466D01*
X160057690Y-90841421D01*
X160247560Y-90959401D01*
X160429811Y-91087661D01*
X160605438Y-91225456D01*
X160775434Y-91372040D01*
X160940795Y-91526666D01*
X160969217Y-91558189D01*
X160801819Y-91737319D01*
X160635165Y-91915659D01*
X160469114Y-92093368D01*
X160303526Y-92270609D01*
X160138260Y-92447540D01*
X159960157Y-92292207D01*
X159781176Y-92141616D01*
X159619076Y-92020703D01*
X159449473Y-91913358D01*
X159271314Y-91821827D01*
X159083544Y-91748358D01*
X158889785Y-91700579D01*
X158700105Y-91683246D01*
X158700105Y-92448574D01*
X158880162Y-92466510D01*
X159052192Y-92524610D01*
X159207567Y-92622723D01*
X159437952Y-92814311D01*
X159647138Y-92992770D01*
X159835419Y-93165737D01*
X160003092Y-93340852D01*
X160150449Y-93525754D01*
X160277786Y-93728082D01*
X160290396Y-93838596D01*
X160302850Y-94102212D01*
X160314194Y-94441695D01*
X160323477Y-94779809D01*
X160329746Y-95039317D01*
X160332047Y-95142983D01*
X160362536Y-99842438D01*
X160392508Y-99842438D01*
X160597978Y-99826745D01*
X160840543Y-99733401D01*
X161046636Y-99630732D01*
X161258831Y-99526056D01*
X161371260Y-99422825D01*
X161467378Y-99224905D01*
X161526182Y-99117466D01*
X161585019Y-98928960D01*
X161676668Y-98554145D01*
X161760500Y-98170012D01*
X161817126Y-97859808D01*
X161851473Y-97630100D01*
X161868468Y-97487457D01*
X161873038Y-97438450D01*
X161873956Y-97371546D01*
X161880540Y-97194920D01*
X161898539Y-96944702D01*
X161933699Y-96657024D01*
X161991770Y-96368016D01*
X162078499Y-96113808D01*
X162199633Y-95930532D01*
X162350924Y-95797753D01*
X162496642Y-95709614D01*
X162686425Y-95635976D01*
X162887562Y-95576058D01*
X163051356Y-95555954D01*
X163265201Y-95565179D01*
X163479212Y-95589487D01*
X163638274Y-95640324D01*
X163832609Y-95746564D01*
X164017728Y-95859556D01*
X164141347Y-95965376D01*
X164253255Y-96127936D01*
X164318337Y-96224534D01*
X164381929Y-96393553D01*
X164378060Y-96674667D01*
X164376773Y-96982342D01*
X164377431Y-97296839D01*
X164379398Y-97598419D01*
X164382037Y-97867341D01*
X164384710Y-98083868D01*
X164386781Y-98228259D01*
X164387613Y-98280776D01*
X164386229Y-98347826D01*
X164378997Y-98524488D01*
X164361295Y-98774026D01*
X164328501Y-99059706D01*
X164275991Y-99344794D01*
X164226382Y-99512742D01*
X164397431Y-99513774D01*
X164836854Y-99561647D01*
X165258473Y-99620745D01*
X165661402Y-99689374D01*
X166044756Y-99765841D01*
X166407648Y-99848455D01*
X166749193Y-99935523D01*
X167068505Y-100025352D01*
X167364698Y-100116249D01*
X167636886Y-100206523D01*
X167884184Y-100294480D01*
X168105706Y-100378427D01*
X168300565Y-100456674D01*
X168467876Y-100527526D01*
X168606753Y-100589291D01*
X168716311Y-100640277D01*
X168795664Y-100678791D01*
X168843925Y-100703141D01*
X168860208Y-100711634D01*
X168860208Y-84740000D01*
X158700105Y-84740000D01*
X158700105Y-84740000D01*
G37*
X158700105Y-84740000D02*
X158700105Y-86009690D01*
X158810176Y-86009690D01*
X159040136Y-86030877D01*
X159302483Y-86057478D01*
X159561883Y-86096782D01*
X159818442Y-86148294D01*
X160072261Y-86211518D01*
X160323445Y-86285959D01*
X160572098Y-86371122D01*
X160818322Y-86466510D01*
X161056941Y-86569096D01*
X161291127Y-86679434D01*
X161520998Y-86797282D01*
X161746674Y-86922397D01*
X161968271Y-87054538D01*
X162185908Y-87193463D01*
X162399703Y-87338930D01*
X162609775Y-87490698D01*
X162816242Y-87648523D01*
X163019221Y-87812164D01*
X163209752Y-87973787D01*
X163397264Y-88139312D01*
X163582994Y-88307121D01*
X163768177Y-88475597D01*
X163954048Y-88643121D01*
X164002107Y-88681879D01*
X163833316Y-88862641D01*
X163665589Y-89042263D01*
X163498387Y-89221318D01*
X163331170Y-89400377D01*
X163163399Y-89580015D01*
X163085367Y-89508701D01*
X162919073Y-89349553D01*
X162750187Y-89193653D01*
X162578561Y-89041175D01*
X162404046Y-88892295D01*
X162226492Y-88747184D01*
X162045749Y-88606019D01*
X161861669Y-88468971D01*
X161652952Y-88321758D01*
X161440804Y-88181259D01*
X161224948Y-88048020D01*
X161005109Y-87922587D01*
X160781009Y-87805509D01*
X160552373Y-87697330D01*
X160318923Y-87598597D01*
X160080383Y-87509857D01*
X159854526Y-87437832D01*
X159626982Y-87377715D01*
X159397760Y-87329599D01*
X159166868Y-87293577D01*
X158934313Y-87269744D01*
X158700105Y-87258193D01*
X158700105Y-88234360D01*
X158959904Y-88246805D01*
X159218269Y-88275588D01*
X159475151Y-88320783D01*
X159730499Y-88382464D01*
X159984264Y-88460703D01*
X160223415Y-88549241D01*
X160456701Y-88648879D01*
X160684321Y-88759164D01*
X160906473Y-88879644D01*
X161123355Y-89009864D01*
X161335165Y-89149373D01*
X161542102Y-89297716D01*
X161744364Y-89454441D01*
X161937943Y-89615904D01*
X162127539Y-89782572D01*
X162315458Y-89951443D01*
X162504008Y-90119517D01*
X162546382Y-90149489D01*
X162376160Y-90331706D01*
X162207901Y-90511768D01*
X162041502Y-90689811D01*
X161876860Y-90865973D01*
X161713875Y-91040391D01*
X161526221Y-90878616D01*
X161340832Y-90718002D01*
X161155413Y-90560194D01*
X160967667Y-90406838D01*
X160766774Y-90254427D01*
X160560015Y-90112227D01*
X160347073Y-89981017D01*
X160127634Y-89861580D01*
X159901383Y-89754696D01*
X159668005Y-89661147D01*
X159430335Y-89584457D01*
X159189785Y-89527355D01*
X158946369Y-89490381D01*
X158700105Y-89474078D01*
X158700105Y-90441978D01*
X158935540Y-90455832D01*
X159169177Y-90492340D01*
X159401006Y-90551170D01*
X159631020Y-90631990D01*
X159859207Y-90734466D01*
X160057690Y-90841421D01*
X160247560Y-90959401D01*
X160429811Y-91087661D01*
X160605438Y-91225456D01*
X160775434Y-91372040D01*
X160940795Y-91526666D01*
X160969217Y-91558189D01*
X160801819Y-91737319D01*
X160635165Y-91915659D01*
X160469114Y-92093368D01*
X160303526Y-92270609D01*
X160138260Y-92447540D01*
X159960157Y-92292207D01*
X159781176Y-92141616D01*
X159619076Y-92020703D01*
X159449473Y-91913358D01*
X159271314Y-91821827D01*
X159083544Y-91748358D01*
X158889785Y-91700579D01*
X158700105Y-91683246D01*
X158700105Y-92448574D01*
X158880162Y-92466510D01*
X159052192Y-92524610D01*
X159207567Y-92622723D01*
X159437952Y-92814311D01*
X159647138Y-92992770D01*
X159835419Y-93165737D01*
X160003092Y-93340852D01*
X160150449Y-93525754D01*
X160277786Y-93728082D01*
X160290396Y-93838596D01*
X160302850Y-94102212D01*
X160314194Y-94441695D01*
X160323477Y-94779809D01*
X160329746Y-95039317D01*
X160332047Y-95142983D01*
X160362536Y-99842438D01*
X160392508Y-99842438D01*
X160597978Y-99826745D01*
X160840543Y-99733401D01*
X161046636Y-99630732D01*
X161258831Y-99526056D01*
X161371260Y-99422825D01*
X161467378Y-99224905D01*
X161526182Y-99117466D01*
X161585019Y-98928960D01*
X161676668Y-98554145D01*
X161760500Y-98170012D01*
X161817126Y-97859808D01*
X161851473Y-97630100D01*
X161868468Y-97487457D01*
X161873038Y-97438450D01*
X161873956Y-97371546D01*
X161880540Y-97194920D01*
X161898539Y-96944702D01*
X161933699Y-96657024D01*
X161991770Y-96368016D01*
X162078499Y-96113808D01*
X162199633Y-95930532D01*
X162350924Y-95797753D01*
X162496642Y-95709614D01*
X162686425Y-95635976D01*
X162887562Y-95576058D01*
X163051356Y-95555954D01*
X163265201Y-95565179D01*
X163479212Y-95589487D01*
X163638274Y-95640324D01*
X163832609Y-95746564D01*
X164017728Y-95859556D01*
X164141347Y-95965376D01*
X164253255Y-96127936D01*
X164318337Y-96224534D01*
X164381929Y-96393553D01*
X164378060Y-96674667D01*
X164376773Y-96982342D01*
X164377431Y-97296839D01*
X164379398Y-97598419D01*
X164382037Y-97867341D01*
X164384710Y-98083868D01*
X164386781Y-98228259D01*
X164387613Y-98280776D01*
X164386229Y-98347826D01*
X164378997Y-98524488D01*
X164361295Y-98774026D01*
X164328501Y-99059706D01*
X164275991Y-99344794D01*
X164226382Y-99512742D01*
X164397431Y-99513774D01*
X164836854Y-99561647D01*
X165258473Y-99620745D01*
X165661402Y-99689374D01*
X166044756Y-99765841D01*
X166407648Y-99848455D01*
X166749193Y-99935523D01*
X167068505Y-100025352D01*
X167364698Y-100116249D01*
X167636886Y-100206523D01*
X167884184Y-100294480D01*
X168105706Y-100378427D01*
X168300565Y-100456674D01*
X168467876Y-100527526D01*
X168606753Y-100589291D01*
X168716311Y-100640277D01*
X168795664Y-100678791D01*
X168843925Y-100703141D01*
X168860208Y-100711634D01*
X168860208Y-84740000D01*
X158700105Y-84740000D01*
D10*
G36*
X148540000Y-84740000D02*
X148540000Y-99688442D01*
X148547306Y-99312107D01*
X148569677Y-98995998D01*
X148607792Y-98736625D01*
X148662330Y-98530498D01*
X148733972Y-98374126D01*
X148823398Y-98264018D01*
X148931285Y-98196686D01*
X149058315Y-98168638D01*
X149155514Y-98170187D01*
X149262007Y-98187070D01*
X149378007Y-98218206D01*
X149503723Y-98262514D01*
X149639366Y-98318913D01*
X149785146Y-98386325D01*
X149941275Y-98463667D01*
X150107963Y-98549859D01*
X150285420Y-98643822D01*
X150473858Y-98744474D01*
X150673487Y-98850735D01*
X150884517Y-98961524D01*
X151107159Y-99075761D01*
X151341624Y-99192365D01*
X151588123Y-99310257D01*
X151846866Y-99428354D01*
X152118064Y-99545578D01*
X152401927Y-99660847D01*
X152698666Y-99773081D01*
X153008492Y-99881199D01*
X153331616Y-99984121D01*
X153668247Y-100080767D01*
X154018598Y-100170056D01*
X154382877Y-100250906D01*
X154761297Y-100322239D01*
X155154068Y-100382973D01*
X155440913Y-100420318D01*
X155717518Y-100452105D01*
X155984379Y-100478631D01*
X156241991Y-100500188D01*
X156490850Y-100517073D01*
X156731452Y-100529580D01*
X156964293Y-100538003D01*
X157127591Y-100524567D01*
X157124187Y-100256464D01*
X157119211Y-99946735D01*
X157112382Y-99634581D01*
X157103421Y-99359200D01*
X157092048Y-99159794D01*
X157077981Y-99075560D01*
X156930955Y-99032662D01*
X156647000Y-98990294D01*
X156355005Y-98955105D01*
X156120408Y-98919226D01*
X155926956Y-98879290D01*
X155758399Y-98831928D01*
X155598485Y-98773770D01*
X155403240Y-98699395D01*
X155264655Y-98653364D01*
X155114346Y-98593981D01*
X154921702Y-98489479D01*
X154705598Y-98353115D01*
X154484912Y-98198146D01*
X154278518Y-98037831D01*
X154105293Y-97885428D01*
X153984113Y-97754193D01*
X153891473Y-97640528D01*
X153810997Y-97553172D01*
X153708760Y-97416707D01*
X153568496Y-97184874D01*
X153424554Y-96917953D01*
X153311286Y-96676223D01*
X153235069Y-96457963D01*
X153181578Y-96246792D01*
X153141138Y-96082082D01*
X153098896Y-95920197D01*
X153090227Y-95822600D01*
X153081607Y-95632258D01*
X153073429Y-95380080D01*
X153066088Y-95096975D01*
X153059976Y-94813854D01*
X153055487Y-94561623D01*
X153048699Y-94310527D01*
X153038129Y-94059778D01*
X153026665Y-93809167D01*
X153017196Y-93558486D01*
X153012611Y-93307527D01*
X153015799Y-93056081D01*
X153029648Y-92803939D01*
X153057048Y-92550893D01*
X153174870Y-92325067D01*
X153285158Y-92156898D01*
X153427148Y-92011009D01*
X153597049Y-91889643D01*
X153791071Y-91795045D01*
X154005420Y-91729460D01*
X154236305Y-91695131D01*
X154400636Y-91685829D01*
X154579586Y-91706310D01*
X154806296Y-91788665D01*
X155009501Y-91870377D01*
X155173178Y-91961512D01*
X155274484Y-92092522D01*
X155355091Y-92353624D01*
X155425118Y-92671699D01*
X155483903Y-93011341D01*
X155530780Y-93337142D01*
X155565086Y-93613695D01*
X155586157Y-93805592D01*
X155593328Y-93877426D01*
X155601489Y-93970144D01*
X155621820Y-94197830D01*
X155648097Y-94484783D01*
X155674092Y-94755305D01*
X155693580Y-94933693D01*
X155708566Y-95069602D01*
X155732855Y-95267522D01*
X155776981Y-95450005D01*
X155830006Y-95672149D01*
X155894088Y-95886631D01*
X155964882Y-96050420D01*
X156038838Y-96183991D01*
X156110609Y-96325856D01*
X156234397Y-96466954D01*
X156427700Y-96580677D01*
X156643325Y-96664917D01*
X156834080Y-96717563D01*
X157049570Y-96738235D01*
X157078952Y-96646048D01*
X157118300Y-96388902D01*
X157121744Y-96279339D01*
X157125279Y-96076264D01*
X157128684Y-95803114D01*
X157131735Y-95483325D01*
X157134211Y-95140333D01*
X157135890Y-94797573D01*
X157136549Y-94478483D01*
X157135966Y-94206496D01*
X157133919Y-94005051D01*
X157130185Y-93897581D01*
X157139634Y-93768232D01*
X157224753Y-93576671D01*
X157362973Y-93426788D01*
X157453080Y-93315031D01*
X157524469Y-93221408D01*
X157606534Y-93125927D01*
X157728670Y-93008595D01*
X157920274Y-92849419D01*
X158210739Y-92628408D01*
X158360324Y-92529442D01*
X158526044Y-92469733D01*
X158700115Y-92448574D01*
X158700115Y-91683246D01*
X158500594Y-91695226D01*
X158305212Y-91738254D01*
X158113754Y-91810880D01*
X157926002Y-91911656D01*
X157716717Y-92056643D01*
X157522489Y-92220692D01*
X157339992Y-92399482D01*
X157310536Y-92435655D01*
X157135041Y-92263262D01*
X156959930Y-92091245D01*
X156784612Y-91919020D01*
X156608499Y-91746007D01*
X156431003Y-91571625D01*
X156604464Y-91403591D01*
X156778785Y-91240379D01*
X156947907Y-91097361D01*
X157123362Y-90965229D01*
X157305706Y-90845082D01*
X157495496Y-90738021D01*
X157693291Y-90645144D01*
X157899647Y-90567552D01*
X158151724Y-90497789D01*
X158401609Y-90455282D01*
X158649472Y-90439395D01*
X158700115Y-90441987D01*
X158700115Y-89474088D01*
X158460337Y-89476152D01*
X158207363Y-89504236D01*
X157961057Y-89554270D01*
X157721047Y-89624853D01*
X157486964Y-89714584D01*
X157258439Y-89822063D01*
X157035101Y-89945890D01*
X156834623Y-90072374D01*
X156641313Y-90208012D01*
X156454615Y-90352090D01*
X156273974Y-90503895D01*
X156098832Y-90662714D01*
X155928635Y-90827833D01*
X155762827Y-90998539D01*
X155734404Y-91035230D01*
X155558476Y-90862516D01*
X155383062Y-90690287D01*
X155207556Y-90517961D01*
X155031350Y-90344954D01*
X154853838Y-90170683D01*
X154994981Y-90028165D01*
X155134958Y-89888529D01*
X155311509Y-89720039D01*
X155492303Y-89557278D01*
X155677695Y-89400725D01*
X155868040Y-89250862D01*
X156063693Y-89108169D01*
X156265009Y-88973127D01*
X156472344Y-88846216D01*
X156685137Y-88728601D01*
X156901722Y-88622026D01*
X157122268Y-88527031D01*
X157346945Y-88444155D01*
X157575920Y-88373938D01*
X157809363Y-88316920D01*
X158047442Y-88273641D01*
X158294080Y-88244381D01*
X158539402Y-88230749D01*
X158700115Y-88234366D01*
X158700115Y-87258193D01*
X158533116Y-87255622D01*
X158365252Y-87259743D01*
X158123506Y-87280624D01*
X157885024Y-87315286D01*
X157649718Y-87363258D01*
X157417500Y-87424070D01*
X157188279Y-87497251D01*
X156961968Y-87582331D01*
X156738478Y-87678839D01*
X156525271Y-87782118D01*
X156317145Y-87893370D01*
X156113892Y-88012244D01*
X155915305Y-88138387D01*
X155721176Y-88271449D01*
X155531297Y-88411077D01*
X155345463Y-88556920D01*
X155163465Y-88708628D01*
X154985096Y-88865847D01*
X154803888Y-89033969D01*
X154625127Y-89205844D01*
X154446775Y-89379932D01*
X154266794Y-89554694D01*
X154209950Y-89500950D01*
X154053555Y-89347273D01*
X153897213Y-89193544D01*
X153740881Y-89039811D01*
X153584519Y-88886121D01*
X153428085Y-88732522D01*
X153397596Y-88709783D01*
X153397596Y-88698414D01*
X153446689Y-88655523D01*
X153618354Y-88477016D01*
X153792789Y-88302087D01*
X153970187Y-88131001D01*
X154150743Y-87964020D01*
X154334654Y-87801407D01*
X154522114Y-87643427D01*
X154713318Y-87490342D01*
X154908462Y-87342417D01*
X155107741Y-87199914D01*
X155311349Y-87063096D01*
X155519483Y-86932228D01*
X155732338Y-86807573D01*
X155962656Y-86683045D01*
X156195844Y-86567995D01*
X156432006Y-86462770D01*
X156671246Y-86367714D01*
X156913668Y-86283176D01*
X157159376Y-86209501D01*
X157408474Y-86147035D01*
X157661067Y-86096126D01*
X157917257Y-86057118D01*
X158177150Y-86030360D01*
X158390057Y-86009689D01*
X158700115Y-86009689D01*
X158700115Y-84740000D01*
X148540000Y-84740000D01*
X148540000Y-84740000D01*
G37*
G36*
X148540000Y-84740000D02*
X148540000Y-99688442D01*
X148547306Y-99312107D01*
X148569677Y-98995998D01*
X148607792Y-98736625D01*
X148662330Y-98530498D01*
X148733972Y-98374126D01*
X148823398Y-98264018D01*
X148931285Y-98196686D01*
X149058315Y-98168638D01*
X149155514Y-98170187D01*
X149262007Y-98187070D01*
X149378007Y-98218206D01*
X149503723Y-98262514D01*
X149639366Y-98318913D01*
X149785146Y-98386325D01*
X149941275Y-98463667D01*
X150107963Y-98549859D01*
X150285420Y-98643822D01*
X150473858Y-98744474D01*
X150673487Y-98850735D01*
X150884517Y-98961524D01*
X151107159Y-99075761D01*
X151341624Y-99192365D01*
X151588123Y-99310257D01*
X151846866Y-99428354D01*
X152118064Y-99545578D01*
X152401927Y-99660847D01*
X152698666Y-99773081D01*
X153008492Y-99881199D01*
X153331616Y-99984121D01*
X153668247Y-100080767D01*
X154018598Y-100170056D01*
X154382877Y-100250906D01*
X154761297Y-100322239D01*
X155154068Y-100382973D01*
X155440913Y-100420318D01*
X155717518Y-100452105D01*
X155984379Y-100478631D01*
X156241991Y-100500188D01*
X156490850Y-100517073D01*
X156731452Y-100529580D01*
X156964293Y-100538003D01*
X157127591Y-100524567D01*
X157124187Y-100256464D01*
X157119211Y-99946735D01*
X157112382Y-99634581D01*
X157103421Y-99359200D01*
X157092048Y-99159794D01*
X157077981Y-99075560D01*
X156930955Y-99032662D01*
X156647000Y-98990294D01*
X156355005Y-98955105D01*
X156120408Y-98919226D01*
X155926956Y-98879290D01*
X155758399Y-98831928D01*
X155598485Y-98773770D01*
X155403240Y-98699395D01*
X155264655Y-98653364D01*
X155114346Y-98593981D01*
X154921702Y-98489479D01*
X154705598Y-98353115D01*
X154484912Y-98198146D01*
X154278518Y-98037831D01*
X154105293Y-97885428D01*
X153984113Y-97754193D01*
X153891473Y-97640528D01*
X153810997Y-97553172D01*
X153708760Y-97416707D01*
X153568496Y-97184874D01*
X153424554Y-96917953D01*
X153311286Y-96676223D01*
X153235069Y-96457963D01*
X153181578Y-96246792D01*
X153141138Y-96082082D01*
X153098896Y-95920197D01*
X153090227Y-95822600D01*
X153081607Y-95632258D01*
X153073429Y-95380080D01*
X153066088Y-95096975D01*
X153059976Y-94813854D01*
X153055487Y-94561623D01*
X153048699Y-94310527D01*
X153038129Y-94059778D01*
X153026665Y-93809167D01*
X153017196Y-93558486D01*
X153012611Y-93307527D01*
X153015799Y-93056081D01*
X153029648Y-92803939D01*
X153057048Y-92550893D01*
X153174870Y-92325067D01*
X153285158Y-92156898D01*
X153427148Y-92011009D01*
X153597049Y-91889643D01*
X153791071Y-91795045D01*
X154005420Y-91729460D01*
X154236305Y-91695131D01*
X154400636Y-91685829D01*
X154579586Y-91706310D01*
X154806296Y-91788665D01*
X155009501Y-91870377D01*
X155173178Y-91961512D01*
X155274484Y-92092522D01*
X155355091Y-92353624D01*
X155425118Y-92671699D01*
X155483903Y-93011341D01*
X155530780Y-93337142D01*
X155565086Y-93613695D01*
X155586157Y-93805592D01*
X155593328Y-93877426D01*
X155601489Y-93970144D01*
X155621820Y-94197830D01*
X155648097Y-94484783D01*
X155674092Y-94755305D01*
X155693580Y-94933693D01*
X155708566Y-95069602D01*
X155732855Y-95267522D01*
X155776981Y-95450005D01*
X155830006Y-95672149D01*
X155894088Y-95886631D01*
X155964882Y-96050420D01*
X156038838Y-96183991D01*
X156110609Y-96325856D01*
X156234397Y-96466954D01*
X156427700Y-96580677D01*
X156643325Y-96664917D01*
X156834080Y-96717563D01*
X157049570Y-96738235D01*
X157078952Y-96646048D01*
X157118300Y-96388902D01*
X157121744Y-96279339D01*
X157125279Y-96076264D01*
X157128684Y-95803114D01*
X157131735Y-95483325D01*
X157134211Y-95140333D01*
X157135890Y-94797573D01*
X157136549Y-94478483D01*
X157135966Y-94206496D01*
X157133919Y-94005051D01*
X157130185Y-93897581D01*
X157139634Y-93768232D01*
X157224753Y-93576671D01*
X157362973Y-93426788D01*
X157453080Y-93315031D01*
X157524469Y-93221408D01*
X157606534Y-93125927D01*
X157728670Y-93008595D01*
X157920274Y-92849419D01*
X158210739Y-92628408D01*
X158360324Y-92529442D01*
X158526044Y-92469733D01*
X158700115Y-92448574D01*
X158700115Y-91683246D01*
X158500594Y-91695226D01*
X158305212Y-91738254D01*
X158113754Y-91810880D01*
X157926002Y-91911656D01*
X157716717Y-92056643D01*
X157522489Y-92220692D01*
X157339992Y-92399482D01*
X157310536Y-92435655D01*
X157135041Y-92263262D01*
X156959930Y-92091245D01*
X156784612Y-91919020D01*
X156608499Y-91746007D01*
X156431003Y-91571625D01*
X156604464Y-91403591D01*
X156778785Y-91240379D01*
X156947907Y-91097361D01*
X157123362Y-90965229D01*
X157305706Y-90845082D01*
X157495496Y-90738021D01*
X157693291Y-90645144D01*
X157899647Y-90567552D01*
X158151724Y-90497789D01*
X158401609Y-90455282D01*
X158649472Y-90439395D01*
X158700115Y-90441987D01*
X158700115Y-89474088D01*
X158460337Y-89476152D01*
X158207363Y-89504236D01*
X157961057Y-89554270D01*
X157721047Y-89624853D01*
X157486964Y-89714584D01*
X157258439Y-89822063D01*
X157035101Y-89945890D01*
X156834623Y-90072374D01*
X156641313Y-90208012D01*
X156454615Y-90352090D01*
X156273974Y-90503895D01*
X156098832Y-90662714D01*
X155928635Y-90827833D01*
X155762827Y-90998539D01*
X155734404Y-91035230D01*
X155558476Y-90862516D01*
X155383062Y-90690287D01*
X155207556Y-90517961D01*
X155031350Y-90344954D01*
X154853838Y-90170683D01*
X154994981Y-90028165D01*
X155134958Y-89888529D01*
X155311509Y-89720039D01*
X155492303Y-89557278D01*
X155677695Y-89400725D01*
X155868040Y-89250862D01*
X156063693Y-89108169D01*
X156265009Y-88973127D01*
X156472344Y-88846216D01*
X156685137Y-88728601D01*
X156901722Y-88622026D01*
X157122268Y-88527031D01*
X157346945Y-88444155D01*
X157575920Y-88373938D01*
X157809363Y-88316920D01*
X158047442Y-88273641D01*
X158294080Y-88244381D01*
X158539402Y-88230749D01*
X158700115Y-88234366D01*
X158700115Y-87258193D01*
X158533116Y-87255622D01*
X158365252Y-87259743D01*
X158123506Y-87280624D01*
X157885024Y-87315286D01*
X157649718Y-87363258D01*
X157417500Y-87424070D01*
X157188279Y-87497251D01*
X156961968Y-87582331D01*
X156738478Y-87678839D01*
X156525271Y-87782118D01*
X156317145Y-87893370D01*
X156113892Y-88012244D01*
X155915305Y-88138387D01*
X155721176Y-88271449D01*
X155531297Y-88411077D01*
X155345463Y-88556920D01*
X155163465Y-88708628D01*
X154985096Y-88865847D01*
X154803888Y-89033969D01*
X154625127Y-89205844D01*
X154446775Y-89379932D01*
X154266794Y-89554694D01*
X154209950Y-89500950D01*
X154053555Y-89347273D01*
X153897213Y-89193544D01*
X153740881Y-89039811D01*
X153584519Y-88886121D01*
X153428085Y-88732522D01*
X153397596Y-88709783D01*
X153397596Y-88698414D01*
X153446689Y-88655523D01*
X153618354Y-88477016D01*
X153792789Y-88302087D01*
X153970187Y-88131001D01*
X154150743Y-87964020D01*
X154334654Y-87801407D01*
X154522114Y-87643427D01*
X154713318Y-87490342D01*
X154908462Y-87342417D01*
X155107741Y-87199914D01*
X155311349Y-87063096D01*
X155519483Y-86932228D01*
X155732338Y-86807573D01*
X155962656Y-86683045D01*
X156195844Y-86567995D01*
X156432006Y-86462770D01*
X156671246Y-86367714D01*
X156913668Y-86283176D01*
X157159376Y-86209501D01*
X157408474Y-86147035D01*
X157661067Y-86096126D01*
X157917257Y-86057118D01*
X158177150Y-86030360D01*
X158390057Y-86009689D01*
X158700115Y-86009689D01*
X158700115Y-84740000D01*
X148540000Y-84740000D01*
X148540000Y-84740000D01*
G37*
D12*
X159950000Y-89200800D02*
X159950000Y-88700800D01*
X160040000Y-91486800D02*
X160040000Y-90986800D01*
X153885691Y-92889681D02*
X154378094Y-92802857D01*
X158850000Y-94550000D02*
X158350000Y-94550000D01*
X163339309Y-97064681D02*
X162846906Y-96977857D01*
X158850000Y-99250000D02*
X158350000Y-99250000D01*
X159950000Y-86914800D02*
X159950000Y-86414800D01*
%LPC*%
D10*
G36*
X149058315Y-98168638D02*
X148931285Y-98196686D01*
X148823397Y-98264018D01*
X148733972Y-98374126D01*
X148662330Y-98530498D01*
X148607791Y-98736625D01*
X148569676Y-98995998D01*
X148547306Y-99312107D01*
X148540000Y-99688442D01*
X148540000Y-105060207D01*
X168860209Y-105060207D01*
X168860209Y-100711635D01*
X168843925Y-100703143D01*
X168795664Y-100678793D01*
X168716312Y-100640279D01*
X168606754Y-100589293D01*
X168467877Y-100527528D01*
X168300566Y-100456676D01*
X168105706Y-100378429D01*
X167884185Y-100294481D01*
X167636887Y-100206524D01*
X167364699Y-100116251D01*
X167068506Y-100025354D01*
X166749194Y-99935525D01*
X166407649Y-99848457D01*
X166044757Y-99765843D01*
X165661403Y-99689375D01*
X165258474Y-99620747D01*
X164836855Y-99561649D01*
X164397432Y-99513776D01*
X164226383Y-99512744D01*
X164153137Y-99752989D01*
X164077955Y-99966765D01*
X164014510Y-100107540D01*
X163947377Y-100222347D01*
X163834676Y-100417082D01*
X163734058Y-100581429D01*
X163630396Y-100723413D01*
X163506039Y-100862857D01*
X163343337Y-101019583D01*
X163124641Y-101213416D01*
X162913491Y-101385899D01*
X162704890Y-101534614D01*
X162496754Y-101660805D01*
X162286999Y-101765714D01*
X162073543Y-101850586D01*
X161895350Y-101916586D01*
X161797590Y-101960140D01*
X161675071Y-101999683D01*
X161431941Y-102049985D01*
X161118162Y-102101873D01*
X160783699Y-102146175D01*
X160492099Y-102191078D01*
X160363053Y-102237126D01*
X160352129Y-102291029D01*
X160329980Y-102591109D01*
X160329895Y-103033860D01*
X160329709Y-103312090D01*
X160329447Y-103467292D01*
X160329129Y-103540957D01*
X160328778Y-103574580D01*
X160328419Y-103609652D01*
X160327396Y-103790001D01*
X158737829Y-103790001D01*
X157148261Y-103790001D01*
X157143094Y-103678380D01*
X157142191Y-103599802D01*
X157141120Y-103413733D01*
X157139935Y-103144400D01*
X157138689Y-102816026D01*
X157137437Y-102452838D01*
X157136230Y-102079061D01*
X157135123Y-101718919D01*
X157134169Y-101396639D01*
X157133421Y-101136446D01*
X157132934Y-100962565D01*
X157132759Y-100899221D01*
X157130710Y-100758122D01*
X157127592Y-100524567D01*
X156964294Y-100538002D01*
X156731453Y-100529580D01*
X156490850Y-100517073D01*
X156241991Y-100500188D01*
X155984379Y-100478631D01*
X155717518Y-100452105D01*
X155440913Y-100420318D01*
X155154067Y-100382973D01*
X154761297Y-100322239D01*
X154382877Y-100250906D01*
X154018598Y-100170056D01*
X153668247Y-100080767D01*
X153331616Y-99984121D01*
X153008492Y-99881199D01*
X152698666Y-99773081D01*
X152401927Y-99660847D01*
X152118064Y-99545578D01*
X151846866Y-99428354D01*
X151588123Y-99310257D01*
X151341624Y-99192365D01*
X151107159Y-99075761D01*
X150884517Y-98961524D01*
X150673487Y-98850735D01*
X150473858Y-98744474D01*
X150285420Y-98643822D01*
X150107963Y-98549859D01*
X149941275Y-98463667D01*
X149785146Y-98386325D01*
X149639366Y-98318913D01*
X149503723Y-98262514D01*
X149378007Y-98218206D01*
X149262007Y-98187070D01*
X149155513Y-98170187D01*
X149058315Y-98168638D01*
X149058315Y-98168638D01*
G37*
D13*
X157750000Y-88950800D03*
X159350000Y-88950800D03*
X157840000Y-91236800D03*
X159440000Y-91236800D03*
D10*
G36*
X154977301Y-95337310D02*
X154189455Y-95476228D01*
X154050537Y-94688382D01*
X154838383Y-94549464D01*
X154977301Y-95337310D01*
X154977301Y-95337310D01*
G37*
G36*
X154699463Y-93761618D02*
X153911617Y-93900536D01*
X153772699Y-93112690D01*
X154560545Y-92973772D01*
X154699463Y-93761618D01*
X154699463Y-93761618D01*
G37*
D13*
X158600000Y-96750000D03*
X158600000Y-95150000D03*
D10*
G36*
X163035545Y-99651228D02*
X162247699Y-99512310D01*
X162386617Y-98724464D01*
X163174463Y-98863382D01*
X163035545Y-99651228D01*
X163035545Y-99651228D01*
G37*
G36*
X163313383Y-98075536D02*
X162525537Y-97936618D01*
X162664455Y-97148772D01*
X163452301Y-97287690D01*
X163313383Y-98075536D01*
X163313383Y-98075536D01*
G37*
D13*
X158600000Y-101450000D03*
X158600000Y-99850000D03*
X157750000Y-86664800D03*
X159350000Y-86664800D03*
D14*
X149810000Y-86010000D03*
D15*
X152350000Y-86010000D03*
X165050000Y-86010000D03*
X167590000Y-86010000D03*
X149810000Y-103790000D03*
X152350000Y-103790000D03*
X165050000Y-103790000D03*
X167590000Y-103790000D03*
M02*
