G04 #@! TF.FileFunction,Soldermask,Top*
%FSLAX46Y46*%
G04 Gerber Fmt 4.6, Leading zero omitted, Abs format (unit mm)*
G04 Created by KiCad (PCBNEW 4.0.7-e2-6376~61~ubuntu18.04.1) date Fri Aug 17 14:47:14 2018*
%MOMM*%
%LPD*%
G01*
G04 APERTURE LIST*
%ADD10C,0.100000*%
%ADD11R,1.778000X1.778000*%
%ADD12C,1.778000*%
G04 APERTURE END LIST*
D10*
G36*
X148486085Y-97373602D02*
X147097667Y-98914821D01*
X147248788Y-99151898D01*
X147378340Y-99394846D01*
X147487334Y-99639065D01*
X147576784Y-99879950D01*
X147647701Y-100112903D01*
X147701097Y-100333319D01*
X147737984Y-100536599D01*
X147759374Y-100718140D01*
X147766279Y-100873341D01*
X147609432Y-100623067D01*
X147449326Y-100414263D01*
X147286519Y-100239785D01*
X147121571Y-100092491D01*
X146955040Y-99965239D01*
X146787487Y-99850884D01*
X146619470Y-99742285D01*
X146451548Y-99632298D01*
X145557222Y-100625135D01*
X145766898Y-100709964D01*
X145966451Y-100814739D01*
X146155545Y-100938277D01*
X146333848Y-101079396D01*
X146501026Y-101236915D01*
X146656746Y-101409651D01*
X146800675Y-101596421D01*
X146932478Y-101796044D01*
X147051824Y-102007337D01*
X147158377Y-102229118D01*
X147251805Y-102460205D01*
X147331774Y-102699416D01*
X147397951Y-102945569D01*
X147450002Y-103197480D01*
X147487595Y-103453969D01*
X147510395Y-103713853D01*
X147518069Y-103975949D01*
X147514863Y-104121868D01*
X147504059Y-104286985D01*
X147483874Y-104467227D01*
X147452526Y-104658523D01*
X147408235Y-104856799D01*
X147349219Y-105057984D01*
X147273696Y-105258005D01*
X147179885Y-105452791D01*
X147066004Y-105638269D01*
X146930271Y-105810367D01*
X146770905Y-105965013D01*
X146586124Y-106098134D01*
X146374147Y-106205659D01*
X146133192Y-106283515D01*
X145861477Y-106327630D01*
X145557222Y-106333932D01*
X145557222Y-106326947D01*
X145358546Y-106292557D01*
X145162023Y-106237291D01*
X144968532Y-106162183D01*
X144778949Y-106068269D01*
X144594151Y-105956586D01*
X144415016Y-105828168D01*
X144242421Y-105684052D01*
X144077243Y-105525274D01*
X143920358Y-105352869D01*
X143772645Y-105167873D01*
X143634981Y-104971321D01*
X143508242Y-104764251D01*
X143393306Y-104547696D01*
X143291051Y-104322694D01*
X143202352Y-104090279D01*
X143128088Y-103851488D01*
X143069136Y-103607357D01*
X143026372Y-103358920D01*
X143000675Y-103107215D01*
X142990317Y-102855362D01*
X142992688Y-102604413D01*
X143007486Y-102354563D01*
X143034410Y-102106005D01*
X143073159Y-101858933D01*
X143123430Y-101613540D01*
X143184924Y-101370019D01*
X143257339Y-101128564D01*
X143340373Y-100889370D01*
X143433725Y-100652628D01*
X143537094Y-100418533D01*
X143650178Y-100187279D01*
X143772677Y-99959058D01*
X143904288Y-99734064D01*
X144044711Y-99512492D01*
X144193644Y-99294533D01*
X144350786Y-99080383D01*
X144515836Y-98870233D01*
X144688492Y-98664279D01*
X144684614Y-98664279D01*
X144475582Y-98793349D01*
X144271158Y-98929060D01*
X144071492Y-99071265D01*
X143876731Y-99219818D01*
X143687024Y-99374571D01*
X143502521Y-99535379D01*
X143323369Y-99702095D01*
X143149717Y-99874572D01*
X142981714Y-100052663D01*
X142819508Y-100236223D01*
X142663249Y-100425103D01*
X142513083Y-100619158D01*
X142369161Y-100818242D01*
X142231631Y-101022207D01*
X142100641Y-101230907D01*
X141976340Y-101444195D01*
X141858876Y-101661925D01*
X141748398Y-101883949D01*
X141645055Y-102110123D01*
X141548996Y-102340298D01*
X141460368Y-102574328D01*
X141379320Y-102812068D01*
X141306002Y-103053369D01*
X141240561Y-103298085D01*
X141183147Y-103546071D01*
X141133907Y-103797178D01*
X141092991Y-104051262D01*
X141060547Y-104308174D01*
X141036723Y-104567769D01*
X141025089Y-104753923D01*
X141025089Y-104757801D01*
X141017333Y-104947834D01*
X141015019Y-105142523D01*
X141019015Y-105389012D01*
X141030921Y-105633513D01*
X141050612Y-105875903D01*
X141077967Y-106116058D01*
X141112861Y-106353854D01*
X141155171Y-106589169D01*
X141204773Y-106821879D01*
X141261545Y-107051861D01*
X141325363Y-107278991D01*
X141396104Y-107503146D01*
X141473644Y-107724202D01*
X141557860Y-107942037D01*
X141648628Y-108156527D01*
X141745826Y-108367548D01*
X141849330Y-108574977D01*
X141959016Y-108778691D01*
X142074761Y-108978566D01*
X142196441Y-109174480D01*
X142323935Y-109366308D01*
X142457117Y-109553927D01*
X142595865Y-109737215D01*
X142740055Y-109916047D01*
X142889564Y-110090300D01*
X143044268Y-110259851D01*
X143204045Y-110424577D01*
X143368771Y-110584354D01*
X143538322Y-110739058D01*
X143712575Y-110888567D01*
X143891407Y-111032757D01*
X144074695Y-111171505D01*
X144262314Y-111304687D01*
X144454142Y-111432180D01*
X144650056Y-111553861D01*
X144849931Y-111669606D01*
X145053645Y-111779292D01*
X145261074Y-111882795D01*
X145472095Y-111979993D01*
X145686585Y-112070761D01*
X145904420Y-112154977D01*
X146125476Y-112232517D01*
X146349631Y-112303258D01*
X146576761Y-112367076D01*
X146806743Y-112423848D01*
X147039452Y-112473451D01*
X147274767Y-112515761D01*
X147512564Y-112550654D01*
X147752719Y-112578009D01*
X147995108Y-112597700D01*
X148239609Y-112609606D01*
X148486098Y-112613602D01*
X148732588Y-112609606D01*
X148977089Y-112597700D01*
X149219479Y-112578009D01*
X149459634Y-112550654D01*
X149697430Y-112515761D01*
X149932745Y-112473451D01*
X150165455Y-112423848D01*
X150395437Y-112367076D01*
X150622567Y-112303258D01*
X150846722Y-112232517D01*
X151067778Y-112154977D01*
X151285613Y-112070761D01*
X151500103Y-111979993D01*
X151711124Y-111882795D01*
X151918553Y-111779292D01*
X152122267Y-111669606D01*
X152322143Y-111553861D01*
X152518056Y-111432180D01*
X152709884Y-111304687D01*
X152897504Y-111171505D01*
X153080791Y-111032757D01*
X153259624Y-110888567D01*
X153433877Y-110739058D01*
X153603428Y-110584354D01*
X153768154Y-110424577D01*
X153927931Y-110259851D01*
X154082635Y-110090300D01*
X154232144Y-109916047D01*
X154376335Y-109737215D01*
X154515082Y-109553927D01*
X154648265Y-109366308D01*
X154775758Y-109174480D01*
X154897439Y-108978566D01*
X155013184Y-108778691D01*
X155122870Y-108574977D01*
X155226373Y-108367548D01*
X155323571Y-108156527D01*
X155414339Y-107942037D01*
X155498555Y-107724202D01*
X155576095Y-107503146D01*
X155646836Y-107278991D01*
X155710654Y-107051861D01*
X155767426Y-106821879D01*
X155817029Y-106589169D01*
X155859339Y-106353854D01*
X155894232Y-106116058D01*
X155921587Y-105875903D01*
X155941278Y-105633513D01*
X155953184Y-105389012D01*
X155957180Y-105142523D01*
X155954757Y-104949737D01*
X155947507Y-104758102D01*
X155935454Y-104567766D01*
X155911630Y-104308172D01*
X155879187Y-104051259D01*
X155838271Y-103797176D01*
X155789031Y-103546069D01*
X155731617Y-103298083D01*
X155666177Y-103053367D01*
X155592859Y-102812065D01*
X155511812Y-102574326D01*
X155423184Y-102340296D01*
X155327125Y-102110121D01*
X155223782Y-101883947D01*
X155113304Y-101661922D01*
X154995841Y-101444193D01*
X154871540Y-101230905D01*
X154740550Y-101022205D01*
X154603019Y-100818240D01*
X154459097Y-100619157D01*
X154308932Y-100425101D01*
X154152672Y-100236221D01*
X153990467Y-100052662D01*
X153822464Y-99874570D01*
X153648812Y-99702094D01*
X153469660Y-99535378D01*
X153285157Y-99374570D01*
X153095450Y-99219817D01*
X152900690Y-99071265D01*
X152701023Y-98929060D01*
X152496599Y-98793349D01*
X152287567Y-98664279D01*
X152283666Y-98664279D01*
X152456323Y-98870233D01*
X152621373Y-99080382D01*
X152778515Y-99294532D01*
X152927448Y-99512491D01*
X153067871Y-99734063D01*
X153199483Y-99959057D01*
X153321981Y-100187278D01*
X153435066Y-100418532D01*
X153538435Y-100652627D01*
X153631787Y-100889369D01*
X153714821Y-101128564D01*
X153787236Y-101370018D01*
X153848730Y-101613539D01*
X153899002Y-101858932D01*
X153937751Y-102106005D01*
X153964675Y-102354563D01*
X153979474Y-102604413D01*
X153981845Y-102855362D01*
X153971488Y-103107215D01*
X153945790Y-103358920D01*
X153903025Y-103607357D01*
X153844072Y-103851488D01*
X153769808Y-104090279D01*
X153681109Y-104322694D01*
X153578853Y-104547696D01*
X153463917Y-104764251D01*
X153337178Y-104971321D01*
X153199514Y-105167873D01*
X153051801Y-105352869D01*
X152894917Y-105525274D01*
X152729739Y-105684052D01*
X152557143Y-105828168D01*
X152378009Y-105956586D01*
X152193211Y-106068269D01*
X152003628Y-106162183D01*
X151810137Y-106237291D01*
X151613615Y-106292557D01*
X151414939Y-106326947D01*
X151414939Y-106333932D01*
X151110683Y-106327630D01*
X150838968Y-106283515D01*
X150598013Y-106205659D01*
X150386036Y-106098134D01*
X150201255Y-105965012D01*
X150041888Y-105810367D01*
X149906155Y-105638268D01*
X149792274Y-105452790D01*
X149698462Y-105258004D01*
X149622939Y-105057983D01*
X149563923Y-104856798D01*
X149519632Y-104658522D01*
X149488285Y-104467227D01*
X149468100Y-104286985D01*
X149457295Y-104121868D01*
X149454090Y-103975949D01*
X149461764Y-103713852D01*
X149484564Y-103453968D01*
X149522156Y-103197479D01*
X149574208Y-102945568D01*
X149640385Y-102699415D01*
X149720355Y-102460204D01*
X149813783Y-102229117D01*
X149920337Y-102007336D01*
X150039682Y-101796043D01*
X150171486Y-101596420D01*
X150315415Y-101409649D01*
X150471135Y-101236914D01*
X150638313Y-101079395D01*
X150816616Y-100938275D01*
X151005711Y-100814737D01*
X151205263Y-100709962D01*
X151414939Y-100625133D01*
X150520610Y-99632298D01*
X150352688Y-99742285D01*
X150184671Y-99850884D01*
X150017118Y-99965239D01*
X149850588Y-100092491D01*
X149685640Y-100239785D01*
X149522833Y-100414262D01*
X149362727Y-100623066D01*
X149205880Y-100873339D01*
X149212785Y-100718139D01*
X149234175Y-100536598D01*
X149271062Y-100333319D01*
X149324458Y-100112902D01*
X149395375Y-99879950D01*
X149484825Y-99639064D01*
X149593820Y-99394846D01*
X149723371Y-99151898D01*
X149874491Y-98914821D01*
X148486085Y-97373602D01*
X148486085Y-97373602D01*
G37*
D11*
X139611100Y-96113600D03*
D12*
X157391100Y-96113600D03*
X139611100Y-113893600D03*
X157391100Y-113893600D03*
M02*
