G04 #@! TF.FileFunction,Copper,L2,Bot,Signal*
%FSLAX46Y46*%
G04 Gerber Fmt 4.6, Leading zero omitted, Abs format (unit mm)*
G04 Created by KiCad (PCBNEW 4.0.7-e2-6376~61~ubuntu18.04.1) date Fri Aug 17 14:13:56 2018*
%MOMM*%
%LPD*%
G01*
G04 APERTURE LIST*
%ADD10C,0.100000*%
%ADD11R,1.778000X1.778000*%
%ADD12C,1.778000*%
%ADD13R,0.700000X1.300000*%
%ADD14R,0.800000X0.750000*%
%ADD15R,1.500000X0.600000*%
%ADD16R,1.550000X0.600000*%
%ADD17C,0.600000*%
%ADD18C,0.500000*%
G04 APERTURE END LIST*
D10*
D11*
X149810000Y-86010000D03*
D12*
X152350000Y-86010000D03*
X165050000Y-86010000D03*
X167590000Y-86010000D03*
X149810000Y-103790000D03*
X152350000Y-103790000D03*
X165050000Y-103790000D03*
X167590000Y-103790000D03*
D13*
X164575000Y-97975000D03*
X166475000Y-97975000D03*
X160525000Y-95525000D03*
X162425000Y-95525000D03*
X160600000Y-97975000D03*
X162500000Y-97975000D03*
D14*
X166250000Y-95600000D03*
X164750000Y-95600000D03*
D15*
X156675000Y-89430000D03*
X156675000Y-90700000D03*
X156675000Y-91970000D03*
X156675000Y-93240000D03*
X156675000Y-94510000D03*
X156675000Y-95780000D03*
X156675000Y-97050000D03*
X156675000Y-98320000D03*
X151275000Y-98320000D03*
X151275000Y-97050000D03*
X151275000Y-95780000D03*
X151275000Y-94510000D03*
X151275000Y-93240000D03*
X151275000Y-91970000D03*
X151275000Y-90700000D03*
X151275000Y-89430000D03*
D16*
X166350000Y-89420000D03*
X166350000Y-90690000D03*
X166350000Y-91960000D03*
X166350000Y-93230000D03*
X160950000Y-93230000D03*
X160950000Y-91960000D03*
X160950000Y-90690000D03*
X160950000Y-89420000D03*
D17*
X158600000Y-99850000D03*
X150850000Y-88425000D03*
X168075000Y-99775000D03*
X166250000Y-95600000D03*
X166325000Y-89425000D03*
X153975000Y-92200000D03*
X163600000Y-91975000D03*
X162650000Y-99250000D03*
X158600000Y-96750000D03*
X154525000Y-95000000D03*
X151325000Y-97050000D03*
X157775000Y-88875000D03*
X152800000Y-95975000D03*
D18*
X158725000Y-99850000D02*
X160600000Y-97975000D01*
X160475000Y-97975000D02*
X160600000Y-97975000D01*
X158600000Y-99850000D02*
X158725000Y-99850000D01*
X152100000Y-88425000D02*
X152225000Y-88550000D01*
X150850000Y-88425000D02*
X152100000Y-88425000D01*
X154750000Y-91375000D02*
X154750000Y-89950000D01*
X155345000Y-91970000D02*
X154750000Y-91375000D01*
X154750000Y-89950000D02*
X153350000Y-88550000D01*
X153350000Y-88550000D02*
X152225000Y-88550000D01*
X156675000Y-91970000D02*
X155745000Y-91970000D01*
X155745000Y-91970000D02*
X155345000Y-91970000D01*
X152225000Y-88550000D02*
X152150000Y-88550000D01*
X168075000Y-99775000D02*
X167540000Y-100310000D01*
X167540000Y-103740000D02*
X167540000Y-100310000D01*
X166325000Y-89425000D02*
X166345000Y-89425000D01*
X166345000Y-89425000D02*
X166350000Y-89420000D01*
X162500000Y-97975000D02*
X162825000Y-97975000D01*
X162825000Y-97975000D02*
X163525000Y-98675000D01*
X163525000Y-98675000D02*
X163525000Y-101650000D01*
X149850000Y-93000000D02*
X149850000Y-99650000D01*
X150875000Y-100675000D02*
X156675000Y-100675000D01*
X149850000Y-99650000D02*
X150875000Y-100675000D01*
X156675000Y-98320000D02*
X156675000Y-100675000D01*
X157650000Y-101650000D02*
X163525000Y-101650000D01*
X163525000Y-101650000D02*
X165450000Y-101650000D01*
X156675000Y-100675000D02*
X157650000Y-101650000D01*
X166880000Y-89420000D02*
X166350000Y-89420000D01*
X151275000Y-93240000D02*
X150090000Y-93240000D01*
X149850000Y-93000000D02*
X149850000Y-90700000D01*
X150090000Y-93240000D02*
X149850000Y-93000000D01*
X149850000Y-90700000D02*
X151275000Y-90700000D01*
X149875000Y-90725000D02*
X149850000Y-90700000D01*
X167540000Y-103740000D02*
X165450000Y-101650000D01*
X149100000Y-90150000D02*
X149100000Y-88800000D01*
X162075000Y-87575000D02*
X162460000Y-87960000D01*
X150325000Y-87575000D02*
X162075000Y-87575000D01*
X149100000Y-88800000D02*
X150325000Y-87575000D01*
X151275000Y-89430000D02*
X149820000Y-89430000D01*
X156265000Y-103740000D02*
X165000000Y-103740000D01*
X154350000Y-101825000D02*
X156265000Y-103740000D01*
X150350000Y-101825000D02*
X154350000Y-101825000D01*
X149100000Y-100575000D02*
X150350000Y-101825000D01*
X149100000Y-90150000D02*
X149100000Y-100575000D01*
X149820000Y-89430000D02*
X149100000Y-90150000D01*
X162410000Y-87960000D02*
X162460000Y-87960000D01*
X162460000Y-87960000D02*
X167535000Y-87960000D01*
X167535000Y-87960000D02*
X167875000Y-88300000D01*
X167875000Y-88300000D02*
X167875000Y-94755000D01*
X164575000Y-97975000D02*
X164575000Y-98200000D01*
X164575000Y-98200000D02*
X165925000Y-99550000D01*
X167875000Y-98850000D02*
X167875000Y-94755000D01*
X167175000Y-99550000D02*
X167875000Y-98850000D01*
X165925000Y-99550000D02*
X167175000Y-99550000D01*
X167875000Y-94755000D02*
X166350000Y-93230000D01*
X165000000Y-85960000D02*
X164410000Y-85960000D01*
X164410000Y-85960000D02*
X162410000Y-87960000D01*
X162410000Y-87960000D02*
X160950000Y-89420000D01*
X166350000Y-91960000D02*
X163615000Y-91960000D01*
X153745000Y-91970000D02*
X151275000Y-91970000D01*
X153975000Y-92200000D02*
X153745000Y-91970000D01*
X163615000Y-91960000D02*
X163600000Y-91975000D01*
X166290000Y-91960000D02*
X166250000Y-92000000D01*
X166290000Y-91960000D02*
X166350000Y-91960000D01*
X164750000Y-95600000D02*
X162500000Y-95600000D01*
X162500000Y-95600000D02*
X162425000Y-95525000D01*
X162425000Y-95525000D02*
X162425000Y-91970000D01*
X162425000Y-91970000D02*
X162415000Y-91960000D01*
X160950000Y-91960000D02*
X162415000Y-91960000D01*
X163685000Y-90690000D02*
X166350000Y-90690000D01*
X162415000Y-91960000D02*
X163685000Y-90690000D01*
X160525000Y-95525000D02*
X160525000Y-95675000D01*
X160525000Y-95675000D02*
X161600000Y-96750000D01*
X165250000Y-96750000D02*
X166475000Y-97975000D01*
X161600000Y-96750000D02*
X165250000Y-96750000D01*
X160950000Y-90690000D02*
X160085000Y-90690000D01*
X159675000Y-94675000D02*
X160525000Y-95525000D01*
X159675000Y-91100000D02*
X159675000Y-94675000D01*
X160085000Y-90690000D02*
X159675000Y-91100000D01*
X160200000Y-100925000D02*
X158400000Y-100925000D01*
X162250000Y-99650000D02*
X162650000Y-99250000D01*
X160200000Y-100925000D02*
X162250000Y-100925000D01*
X162250000Y-100925000D02*
X162250000Y-99650000D01*
X157450000Y-90700000D02*
X156675000Y-90700000D01*
X158900000Y-95825000D02*
X159400000Y-96325000D01*
X158900000Y-92150000D02*
X158900000Y-95825000D01*
X157450000Y-90700000D02*
X158900000Y-92150000D01*
X159400000Y-97825000D02*
X159400000Y-96325000D01*
X157700000Y-99525000D02*
X159400000Y-97825000D01*
X157700000Y-100225000D02*
X157700000Y-99525000D01*
X158400000Y-100925000D02*
X157700000Y-100225000D01*
X158100000Y-96250000D02*
X158600000Y-96750000D01*
X158100000Y-96250000D02*
X158100000Y-94050000D01*
X157290000Y-93240000D02*
X158100000Y-94050000D01*
X157290000Y-93240000D02*
X156675000Y-93240000D01*
X154525000Y-96300000D02*
X154525000Y-95000000D01*
X155275000Y-97050000D02*
X154525000Y-96300000D01*
X156675000Y-97050000D02*
X155275000Y-97050000D01*
X151275000Y-97050000D02*
X151325000Y-97050000D01*
X157775000Y-88875000D02*
X157220000Y-89430000D01*
X157220000Y-89430000D02*
X156675000Y-89430000D01*
X156675000Y-89430000D02*
X156770000Y-89430000D01*
X156625000Y-89475000D02*
X156670000Y-89430000D01*
X156670000Y-89430000D02*
X156675000Y-89430000D01*
X152800000Y-94225000D02*
X153600000Y-93425000D01*
X152800000Y-95975000D02*
X152800000Y-94225000D01*
X153600000Y-93425000D02*
X154750000Y-93425000D01*
X154750000Y-93425000D02*
X155835000Y-94510000D01*
X155835000Y-94510000D02*
X156675000Y-94510000D01*
X156185000Y-94510000D02*
X156675000Y-94510000D01*
M02*
