G04 #@! TF.FileFunction,Soldermask,Bot*
%FSLAX46Y46*%
G04 Gerber Fmt 4.6, Leading zero omitted, Abs format (unit mm)*
G04 Created by KiCad (PCBNEW 4.0.7-e2-6376~61~ubuntu18.04.1) date Fri Aug 17 14:13:56 2018*
%MOMM*%
%LPD*%
G01*
G04 APERTURE LIST*
%ADD10C,0.100000*%
%ADD11R,1.778000X1.778000*%
%ADD12C,1.778000*%
%ADD13R,0.700000X1.300000*%
%ADD14R,0.800000X0.750000*%
%ADD15R,1.500000X0.600000*%
%ADD16R,1.550000X0.600000*%
G04 APERTURE END LIST*
D10*
D11*
X149810000Y-86010000D03*
D12*
X152350000Y-86010000D03*
X165050000Y-86010000D03*
X167590000Y-86010000D03*
X149810000Y-103790000D03*
X152350000Y-103790000D03*
X165050000Y-103790000D03*
X167590000Y-103790000D03*
D13*
X164575000Y-97975000D03*
X166475000Y-97975000D03*
X160525000Y-95525000D03*
X162425000Y-95525000D03*
X160600000Y-97975000D03*
X162500000Y-97975000D03*
D14*
X166250000Y-95600000D03*
X164750000Y-95600000D03*
D15*
X156675000Y-89430000D03*
X156675000Y-90700000D03*
X156675000Y-91970000D03*
X156675000Y-93240000D03*
X156675000Y-94510000D03*
X156675000Y-95780000D03*
X156675000Y-97050000D03*
X156675000Y-98320000D03*
X151275000Y-98320000D03*
X151275000Y-97050000D03*
X151275000Y-95780000D03*
X151275000Y-94510000D03*
X151275000Y-93240000D03*
X151275000Y-91970000D03*
X151275000Y-90700000D03*
X151275000Y-89430000D03*
D16*
X166350000Y-89420000D03*
X166350000Y-90690000D03*
X166350000Y-91960000D03*
X166350000Y-93230000D03*
X160950000Y-93230000D03*
X160950000Y-91960000D03*
X160950000Y-90690000D03*
X160950000Y-89420000D03*
M02*
