M48
;DRILL file {KiCad 4.0.7-e2-6376~61~ubuntu18.04.1} date Fri Aug 17 11:16:58 2018
;FORMAT={-:-/ absolute / metric / decimal}
FMAT,2
METRIC,TZ
T1C0.400
T2C1.016
%
G90
G05
M71
T1
X150.85Y-88.425
X151.325Y-97.05
X152.8Y-95.975
X153.975Y-92.2
X154.525Y-95.
X157.775Y-88.875
X158.6Y-96.75
X158.6Y-99.85
X162.65Y-99.25
X163.6Y-91.975
X166.25Y-95.6
X166.325Y-89.425
X168.075Y-99.775
T2
X149.81Y-86.01
X149.81Y-103.79
X152.35Y-86.01
X152.35Y-103.79
X165.05Y-86.01
X165.05Y-103.79
X167.59Y-86.01
X167.59Y-103.79
T0
M30
